<!DOCTYPE svg PUBLIC "-//W3C//DTD SVG 1.1//EN" "http://www.w3.org/Graphics/SVG/1.1/DTD/svg11.dtd">

<!-- Uploaded to: SVG Repo, www.svgrepo.com, Transformed by: SVG Repo Mixer Tools -->
<svg width="34px" height="44px" viewBox="0 0 64 64" version="1.1" xml:space="preserve" xmlns="http://www.w3.org/2000/svg" xmlns:xlink="http://www.w3.org/1999/xlink" fill="#000000">

<g id="SVGRepo_bgCarrier" stroke-width="0"/>

<g id="SVGRepo_tracerCarrier" stroke-linecap="round" stroke-linejoin="round"/>

<g id="SVGRepo_iconCarrier"> <style type="text/css"> .st0{fill:#FFEEA9;} .st1{fill:#D32436;} .st2{fill:#8DD1D3;} .st3{fill:#330D00;} .st4{fill:none;stroke:#330D00;stroke-linecap:round;stroke-linejoin:round;stroke-miterlimit:10;} </style> <g id="_x34_0-Id_Card"/> <g id="_x33_9-Formula"/> <g id="_x33_8-Elbow"/> <g id="_x33_7-Diploma"/> <g id="_x33_6-Laptop"/> <g id="_x33_5-Brush"/> <g id="_x33_4-Baseball"/> <g id="_x33_3-Student"/> <g id="_x33_2-Highlighter"/> <g id="_x33_1-Ruler"/> <g id="_x33_0-Caliper"/> <g id="_x32_9-Ruler_Elbow"/> <g id="_x32_8-Abacus"/> <g id="_x32_7-Id_Card"/> <g id="_x32_6-Eraser"/> <g id="_x32_5-Pencil"/> <g id="_x32_4-Ink"/> <g id="_x32_3-Graduation_Cap"/> <g id="_x32_2-_Sling_Bag"/> <g id="_x32_1-Rugby_Ball"/> <g id="_x32_0-Clock"/> <g id="_x31_9-Certificate"> <g> <g> <path class="st0" d="M51.1,19.1c-1.9-0.7-3-2.4-3-4.3c0-0.7,0.2-1.3,0.5-2c1.6-3.2-0.9-6.5-4-6.5c-0.6,0-1.3,0.1-1.9,0.4 c-0.6,0.3-1.3,0.4-1.9,0.4c-1.9,0-3.6-1.1-4.3-3c-0.7-2-2.5-3.1-4.3-3.1c-1.8,0-3.5,1-4.2,3c-0.7,1.9-2.4,3-4.3,3 c-0.7,0-1.3-0.2-2-0.5c-3.2-1.6-6.5,0.9-6.5,4c0,0.6,0.1,1.3,0.4,1.9c0.3,0.6,0.4,1.3,0.4,1.9c0,1.9-1.1,3.6-3,4.3 c-2,0.7-3.1,2.5-3.1,4.3c0,1.8,1,3.5,3,4.2c1.9,0.7,3,2.4,3,4.3c0,0.7-0.2,1.3-0.5,2c-1.6,3.2,0.9,6.5,4,6.5c0.1,0,0.2,0,0.4,0 c0.5,0,1-0.2,1.6-0.4c0.6-0.3,1.3-0.4,1.9-0.4c1.9,0,3.6,1.1,4.3,3c0.4,1.3,1.3,2.1,2.3,2.6c0.6,0.3,1.3,0.5,2,0.5 c0.8,0,1.5-0.2,2.2-0.6c0.9-0.5,1.6-1.3,2-2.4c0.7-1.9,2.4-3,4.3-3c0.7,0,1.3,0.2,2,0.5c0.7,0.3,1.3,0.5,2,0.5 c2.4,0,4.5-2.1,4.5-4.5c0-0.6-0.1-1.3-0.4-1.9c-0.3-0.6-0.4-1.3-0.4-1.9c0-1.9,1.1-3.6,3-4.3C55.1,26.2,55.1,20.6,51.1,19.1z M32,34.2c-6.1,0-11-4.9-11-11s4.9-11,11-11s11,4.9,11,11S38.1,34.2,32,34.2z"/> </g> <g> <path class="st1" d="M54,57.4l-5.9,0.8l-3.8,4.6L34.1,44.7c0.9-0.5,1.6-1.3,2-2.4c0.7-1.9,2.4-3,4.3-3c0.7,0,1.3,0.2,2,0.5 c0.7,0.3,1.3,0.5,2,0.5L54,57.4z"/> </g> <g> <path class="st1" d="M29.9,44.8L19.7,62.9l-3.8-4.6L10,57.4L19.8,40c0.5,0,1-0.2,1.6-0.4c0.6-0.3,1.3-0.4,1.9-0.4 c1.9,0,3.6,1.1,4.3,3C28,43.5,28.9,44.3,29.9,44.8z"/> </g> <g> <g> <path class="st3" d="M44.1,23.2c0-6.7-5.4-12.1-12.1-12.1s-12.1,5.4-12.1,12.1S25.3,35.3,32,35.3S44.1,29.9,44.1,23.2z M32,33.1 c-5.5,0-9.9-4.4-9.9-9.9s4.4-9.9,9.9-9.9c5.5,0,9.9,4.4,9.9,9.9S37.5,33.1,32,33.1z"/> </g> <g> <path class="st3" d="M46,41.1c2.2-0.7,3.9-2.8,3.9-5.3c0-0.8-0.2-1.6-0.5-2.4c-0.2-0.4-0.3-0.9-0.3-1.5c0-1.5,0.9-2.8,2.3-3.3 c2.3-0.8,3.8-2.9,3.8-5.3c0-2.4-1.4-4.5-3.7-5.3c-1.4-0.5-2.3-1.8-2.3-3.2c0-0.5,0.1-1,0.4-1.5c0.9-1.8,0.8-3.8-0.3-5.4 c-1.5-2.4-4.6-3.3-7.2-2.1c-0.4,0.2-0.9,0.3-1.5,0.3c-1.5,0-2.8-0.9-3.3-2.3C36.7,1.5,34.6,0,32.1,0c-2.4,0-4.4,1.4-5.3,3.7 c-0.7,1.9-2.9,2.8-4.7,1.9c-1.8-0.9-3.8-0.8-5.4,0.3c-1.7,1-2.7,2.9-2.7,4.8c0,0.8,0.2,1.6,0.5,2.4c0.2,0.4,0.3,0.9,0.3,1.5 c0,1.5-0.9,2.8-2.3,3.3c-2.3,0.8-3.8,2.9-3.8,5.3c0,2.4,1.4,4.4,3.7,5.3c1.4,0.5,2.3,1.8,2.3,3.2c0,0.5-0.1,1-0.4,1.5 c-0.9,1.8-0.8,3.8,0.3,5.4c0.8,1.2,2,2.1,3.4,2.5L9,56.9c-0.2,0.3-0.2,0.7,0,1c0.2,0.3,0.5,0.6,0.8,0.6l5.5,0.8l3.5,4.3 c0.2,0.3,0.5,0.4,0.9,0.4c0,0,0.1,0,0.1,0c0.4,0,0.7-0.2,0.9-0.6l9.7-17.3c0.5,0.1,1,0.2,1.5,0.2c0.6,0,1.2-0.1,1.7-0.3 l9.8,17.3c0.2,0.3,0.5,0.5,0.9,0.6c0,0,0.1,0,0.1,0c0.3,0,0.6-0.1,0.9-0.4l3.5-4.3l5.5-0.8c0.4,0,0.7-0.3,0.8-0.6 c0.2-0.3,0.2-0.7,0-1L46,41.1z M19.5,61l-2.7-3.4c-0.2-0.2-0.4-0.4-0.7-0.4l-4.3-0.6L20.5,41c0.1,0,0.1,0,0.2,0 c0.4-0.1,0.8-0.2,1.2-0.4c0,0,0,0,0,0c0.4-0.2,0.9-0.3,1.4-0.3c1.4,0,2.8,0.9,3.3,2.3c0.2,0.5,0.4,0.9,0.7,1.3 c0.1,0.1,0.1,0.2,0.2,0.3c0.3,0.4,0.6,0.7,0.9,1c0,0,0,0,0,0L19.5,61z M30.3,43.8C30.3,43.8,30.3,43.8,30.3,43.8 c-0.8-0.4-1.4-1.1-1.7-2c-0.8-2.3-2.9-3.8-5.3-3.8c0,0,0,0,0,0c0,0,0,0,0,0c-0.8,0-1.6,0.2-2.4,0.5c-0.4,0.2-0.8,0.3-1.2,0.3 c0,0-0.3,0-0.3,0c-1.2,0-2.3-0.6-2.9-1.6c-0.6-1-0.7-2.2-0.1-3.3c0.4-0.8,0.6-1.6,0.6-2.5c0-2.4-1.5-4.5-3.7-5.3 c-1.7-0.6-2.3-2-2.3-3.2c0-1.2,0.6-2.7,2.3-3.3c2.3-0.8,3.8-2.9,3.8-5.3c0-0.8-0.2-1.6-0.5-2.4c-0.2-0.5-0.3-1-0.3-1.5 c0-1.2,0.6-2.3,1.6-2.9c1-0.6,2.2-0.7,3.3-0.1C22,8,22.8,8.2,23.6,8.2c2.4,0,4.5-1.5,5.3-3.7c0.6-1.7,2-2.2,3.2-2.2 c1.2,0,2.7,0.6,3.3,2.3c0.8,2.3,2.9,3.8,5.3,3.8c0.8,0,1.6-0.2,2.4-0.5c1.6-0.7,3.5-0.1,4.4,1.3c0.6,1,0.7,2.2,0.1,3.3 C47.2,13.1,47,14,47,14.8c0,2.4,1.5,4.5,3.7,5.3c0,0,0,0,0,0c1.7,0.6,2.3,2.1,2.2,3.2c0,1.2-0.6,2.6-2.3,3.2 c-2.3,0.8-3.8,2.9-3.8,5.3c0,0.8,0.2,1.6,0.5,2.4c0.2,0.5,0.3,1,0.3,1.5c0,2-1.9,3.7-4,3.3c0,0-0.1,0-0.1,0 c-0.3-0.1-0.6-0.2-0.9-0.3c0,0,0,0,0,0c-0.8-0.4-1.6-0.6-2.5-0.6c0,0,0,0,0,0c0,0,0,0,0,0c-2.4,0-4.5,1.5-5.3,3.7 c-0.3,0.8-0.8,1.4-1.5,1.8C32.5,44.3,31.3,44.3,30.3,43.8z M47.9,57.2c-0.3,0-0.5,0.2-0.7,0.4L44.5,61l-9-15.9 c0,0,0.1-0.1,0.1-0.1c0.3-0.2,0.5-0.5,0.7-0.8c0.1-0.1,0.1-0.2,0.2-0.3c0.2-0.3,0.4-0.7,0.6-1.1c0,0,0,0,0,0 c0.1-0.2,0.1-0.3,0.2-0.5c0.8-1.5,2.8-2.3,4.5-1.5c0,0,0,0,0,0c0.5,0.2,0.9,0.4,1.4,0.5c0,0,0,0,0,0c0.1,0,0.2,0.1,0.3,0.1 l8.6,15.2L47.9,57.2z"/> </g> </g> </g> </g> <g id="_x31_8-Idea"/> <g id="_x31_7-Bookshelf"/> <g id="_x31_6-Formula"/> <g id="_x31_5-Bell"/> <g id="_x31_4-Magnifying_Glass"/> <g id="_x31_3-Calculator"/> <g id="_x31_2-Eyeglasses"/> <g id="_x31_1-Bus"/> <g id="_x31_0-Trophy"/> <g id="_x39_-Globe"/> <g id="_x38_-Basket_Ball"/> <g id="_x37_-Pen"/> <g id="_x36_-Board"/> <g id="_x35_-Bag"/> <g id="_x34_-Exam"/> <g id="_x33_-Book"/> <g id="_x32_-Ruler"/> <g id="_x31_-Building"/> </g>

</svg>